<svg width="110" height="122" viewBox="0 0 110 122" fill="none" xmlns="http://www.w3.org/2000/svg">
<path d="M48.0479 0C38.5657 0 29.5888 2.16315 21.584 6.02344L30.0713 20.8291C35.5599 18.3692 41.6439 17 48.0479 17C72.3484 17 92.0479 36.6995 92.0479 61C92.0479 75.7621 84.7767 88.8242 73.6221 96.8057L82.1094 111.611C98.3601 100.653 109.048 82.0748 109.048 61C109.048 27.3106 81.7372 0 48.0479 0Z" fill="#1700B3"/>
<path d="M9.46191 39.8398L56.4688 121.422C62.3619 120.608 67.9865 118.953 73.2168 116.581L20.8916 26.3779L12.2998 11.5674C7.6663 14.924 3.52469 18.9173 0 23.417L9.46191 39.8398Z" fill="#FC6D09"/>
</svg>
